<?xml version="1.0" encoding="utf-8"?>
<!-- Generator: Adobe Illustrator 15.1.0, SVG Export Plug-In . SVG Version: 6.00 Build 0)  -->
<!DOCTYPE svg PUBLIC "-//W3C//DTD SVG 1.1//EN" "http://www.w3.org/Graphics/SVG/1.1/DTD/svg11.dtd">
<svg version="1.1"
	 id="svg2" xmlns:dc="http://purl.org/dc/elements/1.1/" xmlns:cc="http://creativecommons.org/ns#" xmlns:rdf="http://www.w3.org/1999/02/22-rdf-syntax-ns#" xmlns:svg="http://www.w3.org/2000/svg" xmlns:sodipodi="http://sodipodi.sourceforge.net/DTD/sodipodi-0.dtd" xmlns:inkscape="http://www.inkscape.org/namespaces/inkscape" sodipodi:docname="New document 1" inkscape:version="0.48.4 r9939"
	 xmlns="http://www.w3.org/2000/svg" xmlns:xlink="http://www.w3.org/1999/xlink" x="0px" y="0px" width="300px" height="300px"
	 viewBox="380.044 249.639 300 300" enable-background="new 380.044 249.639 300 300" xml:space="preserve">
<sodipodi:namedview  id="base" inkscape:window-maximized="1" showgrid="false" inkscape:cy="495.71429" inkscape:cx="375" inkscape:zoom="0.35" borderopacity="1.0" bordercolor="#666666" pagecolor="#ffffff" inkscape:window-y="-8" inkscape:window-x="-8" inkscape:window-height="706" inkscape:window-width="1366" inkscape:current-layer="layer1" inkscape:document-units="px" inkscape:pageshadow="2" inkscape:pageopacity="0.0">
	</sodipodi:namedview>
<g id="layer1" transform="translate(0,-308.2677)" inkscape:label="Layer 1" inkscape:groupmode="layer">
	<g id="g3004">
		<path id="path2997" inkscape:connector-curvature="0" fill="#FED142" d="M524.021,846.669
			c-33.84-1.229-54.785-11.264-60.113-28.799l-0.62-2.039l-0.087-34.379c-0.1-39.346-0.064-40.143,2.03-46.408
			c3.821-11.432,12.859-18.803,26.993-22.016l3.125-0.711l38.863-0.172c27.844-0.123,39.387-0.262,40.715-0.49
			c7.783-1.342,12.887-3.352,17.68-6.959c5.727-4.309,10.451-11.684,12.564-19.607c1.586-5.95,1.543-5.299,1.715-26.202
			l0.158-19.431h13.996h13.996l2.717,0.759c14.563,4.066,25.133,17.862,29.635,38.671c1.73,8.003,1.748,8.3,1.752,28.718
			c0.002,19.869-0.006,20.043-1.395,26.563c-1.365,6.406-3.15,11.619-5.82,16.984c-5.383,10.822-13.318,18.146-23.355,21.553
			c-5.734,1.947-0.936,1.783-57.342,1.945l-50.82,0.145v4.621v4.619l33.699,0.137l33.697,0.135l0.137,16.578
			c0.074,9.117,0.041,17.359-0.072,18.316c-0.277,2.313-1.26,5.059-2.662,7.449c-1.447,2.461-5.836,6.863-8.816,8.842
			c-9.051,6.006-22.85,9.666-41.035,10.887C539.236,846.79,530.57,846.907,524.021,846.669L524.021,846.669z M570.765,825.188
			c6.494-1.053,11.145-7.41,10.074-13.773c-0.885-5.248-4.936-9.309-10.156-10.174c-7.967-1.32-15.211,5.996-13.795,13.93
			c1.031,5.771,5.66,9.834,11.703,10.273C568.814,825.462,569.792,825.344,570.765,825.188L570.765,825.188z M425.963,776.153
			c-7.644-1.391-15.171-6.023-20.49-12.611c-10.075-12.479-15.162-33.283-14.523-59.406c0.398-16.277,2.832-28.361,7.782-38.641
			c6.382-13.25,15.916-21.107,28.787-23.725c2.819-0.572,2.961-0.574,52.615-0.555c27.384,0.012,49.989-0.057,50.235-0.151
			c0.391-0.149,0.447-0.755,0.447-4.762c0-2.525-0.031-4.62-0.068-4.656s-15.232-0.128-33.767-0.204l-33.698-0.139l-0.07-17.514
			c-0.076-19.183-0.092-18.96,1.551-22.483c5.693-12.213,22.465-19.633,49.339-21.83c1.943-0.159,7.202-0.361,11.687-0.449
			c29.752-0.583,51.579,4.857,63.051,15.717c1.271,1.203,2.928,2.999,3.682,3.991c1.713,2.255,3.846,6.561,4.662,9.413l0.621,2.174
			v36.145c0,33.738-0.031,36.316-0.49,38.726c-0.592,3.11-2.016,7.48-3.201,9.83c-4.104,8.141-11.664,14.004-21.688,16.82
			c-6.51,1.828-3.553,1.709-46.638,1.896c-42.786,0.186-40.201,0.086-46.199,1.781c-11.65,3.291-20.21,12.367-23.688,25.113
			c-1.563,5.729-1.528,5.193-1.699,26.225l-0.159,19.566l-13.045,0.045C431.15,776.503,427.465,776.426,425.963,776.153
			L425.963,776.153z M497.194,613.573c4.946-2.323,7.925-7.77,7.029-12.853c-0.826-4.689-4.046-8.431-8.415-9.78
			c-6.982-2.157-14.27,2.294-15.558,9.503c-1.048,5.863,2.344,11.571,8.078,13.598c1.282,0.453,2.106,0.545,4.304,0.479
			C495.026,614.449,495.57,614.336,497.194,613.573L497.194,613.573z"/>
		<path id="path2995" inkscape:connector-curvature="0" fill="#3571A3" d="M425.963,776.153c-7.644-1.391-15.171-6.023-20.49-12.611
			c-10.075-12.479-15.162-33.283-14.523-59.406c0.398-16.277,2.832-28.361,7.782-38.641c6.382-13.25,15.916-21.107,28.787-23.725
			c2.819-0.572,2.961-0.574,52.615-0.555c27.384,0.012,49.989-0.057,50.235-0.151c0.391-0.149,0.447-0.755,0.447-4.762
			c0-2.525-0.031-4.62-0.068-4.656s-15.232-0.128-33.767-0.204l-33.698-0.139l-0.07-17.514c-0.076-19.183-0.092-18.96,1.551-22.483
			c5.693-12.213,22.465-19.633,49.339-21.83c1.943-0.159,7.202-0.361,11.687-0.449c29.752-0.583,51.579,4.857,63.051,15.717
			c1.271,1.203,2.928,2.999,3.682,3.991c1.713,2.255,3.846,6.561,4.662,9.413l0.621,2.174v36.145c0,33.738-0.031,36.316-0.49,38.726
			c-0.592,3.11-2.016,7.48-3.201,9.83c-4.104,8.141-11.664,14.004-21.688,16.82c-6.51,1.828-3.553,1.709-46.638,1.896
			c-42.786,0.186-40.201,0.086-46.199,1.781c-11.65,3.291-20.21,12.367-23.688,25.113c-1.563,5.729-1.528,5.193-1.699,26.225
			l-0.159,19.566l-13.045,0.045C431.15,776.503,427.465,776.426,425.963,776.153L425.963,776.153z M497.194,613.573
			c4.946-2.323,7.925-7.77,7.029-12.853c-0.826-4.689-4.046-8.431-8.415-9.78c-6.982-2.157-14.27,2.294-15.558,9.503
			c-1.048,5.863,2.344,11.571,8.078,13.598c1.282,0.453,2.106,0.545,4.304,0.479C495.026,614.449,495.57,614.336,497.194,613.573
			L497.194,613.573z"/>
	</g>
</g>
</svg>
